<?xml version="1.0" encoding="UTF-8" standalone="no"?><!DOCTYPE svg PUBLIC "-//W3C//DTD SVG 1.1//EN" "http://www.w3.org/Graphics/SVG/1.1/DTD/svg11.dtd"><svg width="100%" height="100%" viewBox="0 0 1104 1104" version="1.1" xmlns="http://www.w3.org/2000/svg" xmlns:xlink="http://www.w3.org/1999/xlink" xml:space="preserve" xmlns:serif="http://www.serif.com/" style="fill-rule:evenodd;clip-rule:evenodd;stroke-linejoin:round;stroke-miterlimit:2;"><rect id="history" x="0" y="0" width="1103.32" height="1103.32" style="fill:none;"/><g id="history.svg"><path d="M1041.01,71.477c-8.132,-1.934 -16.694,-0.89 -24.122,2.942l-52.819,26.378l-53.27,-26.636c-9.668,-4.833 -21.07,-4.833 -30.738,0l-53.936,26.657l-53.227,-26.657c-9.697,-4.869 -21.148,-4.869 -30.845,0l-52.926,26.571l-52.519,-26.506c-9.67,-4.903 -21.112,-4.951 -30.823,-0.129l-54.129,26.742l-53.27,-26.699c-9.684,-4.831 -21.098,-4.831 -30.781,0l-53.42,26.657l-53.356,-26.657c-14.109,-7.072 -31.363,-3.561 -41.585,8.463c-5.371,6.401 -8.268,14.522 -8.163,22.876l0,514.915l412.414,0.108c37.707,-0 68.735,31.028 68.735,68.735l0,223.284c0,66.437 71.034,120.287 137.471,120.287l25.776,-0c61.274,-0 111.695,-50.421 111.695,-111.696l0,-816.234c0.013,-15.778 -10.841,-29.635 -26.162,-33.401Zm-145.677,445.814l-273.868,0c-18.558,0 -34.582,-14.263 -35.399,-32.821c-0.023,-0.515 -0.034,-1.031 -0.034,-1.547c-0,-18.85 15.509,-34.363 34.359,-34.368l273.868,0c18.559,0 34.583,14.263 35.399,32.822c0.023,0.515 0.035,1.031 0.035,1.546c0,18.851 -15.509,34.364 -34.36,34.368Zm0,-171.839l-411.339,0c-18.559,0 -34.583,-14.262 -35.399,-32.821c-0.023,-0.515 -0.035,-1.031 -0.035,-1.547c0,-18.85 15.51,-34.363 34.36,-34.367l411.339,-0c18.559,-0 34.583,14.262 35.399,32.821c0.023,0.515 0.035,1.031 0.035,1.546c0,18.851 -15.509,34.364 -34.36,34.368Z" style="fill:#005200;fill-rule:nonzero;"/><path d="M723.498,912.521l-0,-189.023c-0,-18.854 -15.515,-34.368 -34.368,-34.368l-584.253,-0c-37.703,0.117 -68.677,31.139 -68.735,68.843c-0,108.581 12.415,153.731 31.06,188.099c31.64,58.361 88.926,86.736 175.147,86.736l527.717,-0c0.002,-0 0.005,-0 0.007,-0c4.713,-0 8.592,-3.879 8.592,-8.592c-0,-2.259 -0.891,-4.429 -2.477,-6.036c-20.32,-20.384 -52.69,-47.664 -52.69,-105.659Z" style="fill:#005200;fill-rule:nonzero;"/></g></svg>