<?xml version="1.0" encoding="UTF-8" standalone="no"?><!DOCTYPE svg PUBLIC "-//W3C//DTD SVG 1.1//EN" "http://www.w3.org/Graphics/SVG/1.1/DTD/svg11.dtd"><svg width="100%" height="100%" viewBox="0 0 1104 1104" version="1.1" xmlns="http://www.w3.org/2000/svg" xmlns:xlink="http://www.w3.org/1999/xlink" xml:space="preserve" xmlns:serif="http://www.serif.com/" style="fill-rule:evenodd;clip-rule:evenodd;stroke-linejoin:round;stroke-miterlimit:2;"><rect id="Artboard4" x="0" y="0" width="1103.32" height="1103.32" style="fill:none;"/><g id="info.svg"><path id="info.svg1" serif:id="info.svg" d="M551.659,67.759c-265.46,0 -483.9,218.44 -483.9,483.9c0,265.459 218.44,483.899 483.9,483.899c265.459,-0 483.899,-218.44 483.899,-483.899c-0,-265.46 -218.44,-483.9 -483.899,-483.9Zm48.39,725.849c-0,26.546 -21.844,48.39 -48.39,48.39c-26.546,0 -48.39,-21.844 -48.39,-48.39l-0,-290.339c-0,-26.546 21.844,-48.39 48.39,-48.39c26.546,-0 48.39,21.844 48.39,48.39l-0,290.339Zm-48.39,-435.509c-39.819,-0 -72.585,-32.766 -72.585,-72.585c-0,-39.819 32.766,-72.585 72.585,-72.585c39.819,0 72.585,32.766 72.585,72.585c-0,39.819 -32.766,72.585 -72.585,72.585Z" style="fill:#005200;fill-rule:nonzero;"/></g></svg>