<?xml version="1.0" encoding="UTF-8" standalone="no"?><!DOCTYPE svg PUBLIC "-//W3C//DTD SVG 1.1//EN" "http://www.w3.org/Graphics/SVG/1.1/DTD/svg11.dtd"><svg width="100%" height="100%" viewBox="0 0 1104 1104" version="1.1" xmlns="http://www.w3.org/2000/svg" xmlns:xlink="http://www.w3.org/1999/xlink" xml:space="preserve" xmlns:serif="http://www.serif.com/" style="fill-rule:evenodd;clip-rule:evenodd;stroke-linejoin:round;stroke-miterlimit:2;"><rect id="Artboard2" x="0" y="0" width="1103.32" height="1103.32" style="fill:none;"/><g id="settings.svg"><path d="M551.658,68.307c-53.836,-0 -102.867,29.035 -200.924,87.105l-33.165,19.641c-98.059,58.071 -147.088,87.106 -174.007,134.93c-26.919,47.824 -26.919,105.894 -26.919,222.037l-0,39.277c-0,116.145 -0,174.215 26.919,222.037c26.919,47.823 75.948,76.858 174.007,134.928l33.165,19.644c98.057,58.069 147.088,87.104 200.924,87.104c53.84,0 102.867,-29.035 200.929,-87.104l33.163,-19.644c98.058,-58.07 147.089,-87.105 174.007,-134.928c26.917,-47.822 26.917,-105.892 26.917,-222.037l0,-39.277c0,-116.143 0,-174.213 -26.917,-222.037c-26.918,-47.824 -75.949,-76.859 -174.007,-134.93l-33.163,-19.641c-98.062,-58.07 -147.089,-87.105 -200.929,-87.105Zm-181.256,483.352c0,-100.106 81.154,-181.257 181.256,-181.257c100.107,-0 181.257,81.151 181.257,181.257c-0,100.107 -81.15,181.257 -181.257,181.257c-100.102,-0 -181.256,-81.15 -181.256,-181.257Z" style="fill:#005200;"/></g></svg>